<svg xmlns="http://www.w3.org/2000/svg" width="1675" height="752" viewBox="0 0 1675 752" fill="none"><g clip-path="url(#a)" fill="#000"><path d="M328.02 751.93c-2.02-9.26.49-19.87 2.31-29.18 7.46-38.26 20.24-75.62 53.96-98.04 19.44-12.93 38.22-12.69 60.21-16.81 1.63-.3 1.74.68 1.52-1.96-36.31-4.05-74.9-8.47-109.77-19.74-5.62-1.82-13.4-3.83-17.24-8.25 10.84 1.63 21.21 5.94 31.99 8.5 34.59 8.23 79.97 14.78 115.47 16.53 11.72.58 25.23 1.14 35.04-6.04 26.72-19.57-1.61-45.87.06-70.06-5.66-3.23-19.49-1-21.54-8.46-1.07-3.89 7.02.82 7.95 1.06 4.18 1.07 10.14 2.2 14.33 1.24 10.53-2.39 8.95-26.85-.81-28.75-6.97-1.36-20.09 2.73-28.03 1.02-6.92-1.64-13.95-.58-20.94-1.06-5.06-.35-20.81-.95-11.2-7.18l58.62-27.89c1.72-2.43-6.63-11.04-7.47-13.87-3.81-12.73 7.64-16.94 14.06-25.03 19.14-24.13-14.12-36.91-28.98-50.04-9.56-8.44-18.86-20.28-26.34-30.66-9.92-13.76-21.07-29.47-19.69-47.31 3.58 2.52 3.29 6.62 4.74 10.26 8.15 20.42 25.01 45.82 40.87 61.13 13.76 13.29 42.27 23.21 39.89 47.11-1.18 11.88-20.19 20.12-20.71 29.15-.39 6.72 16.1 21.94 16.65 32.99.35 7.08-6.95 15.36-6.74 17.7.14 1.5 5.15 7.39 6.27 10.69 5.62 16.48-6.61 22.21-6.54 35.47.04 8.37 7.73 20.06 9.62 29.45 5.15 25.57-7.07 39.91-32.17 43.93-25.77 4.12-67.71 5.81-90.05 17.95-36.07 19.61-47.59 55.74-56.83 93.17-2.26 9.17-2.78 20.66-5.76 29.24-.51 1.46-.99 3.34-2.72 3.77zm120.99-264.01c15.34-1.11 62.18 9 58.91-17.41-.26-2.12-1.89-8.51-4.34-8.57-1.61.22-3.05.98-4.55 1.51-12.6 4.49-34.78 14.86-46.72 21.27-1.3.7-2.86 1.7-3.3 3.19zM235.91 94.84c-2.86 2.02-20.03-10.37-23.88-12.43-16.78-8.96-44.96-18.68-63.63-22.37-2.42-.48-16.36-.54-16.38-3.6 9.93-8.37 20.37-15.06 29.01-24.97 5.41-6.21 14.47-22.62 19.62-26.38 2.43-1.78 16.61-4.9 20.01-5.08 9.31-.49 21.71 13.6 29.45 19.31 10.09 7.44 23.3 15.99 34.53 21.47 3.34 1.63 19.17 5.14 13.38 10.67-1.45 1.39-12.39 4.97-15.94 7.05-13.76 8.06-21.89 21.21-26.18 36.33zm-34.92-75.91c7.97-15.46 2-14.76-11.98-10.99-1.81 2.61 10.74 11.91 11.98 10.99M268 48.95c-20.63-10.68-41.57-22.67-57.49-39.99-5.08 4.72-3.51 19.35-12.42 14.4-3.99-2.22-13.15-13.37-17.08-10.93-1.19.74-13.38 19.08-16.48 22.53-6.01 6.69-13.43 11.86-19.49 18.49-.01 1.44 24.55 6.2 27.76 7.22 10.28 3.26 25.35 9.29 35.48 13.52 8.54 3.56 15.64 9.66 24.14 12.84 4.82-12.03 12.34-21.67 22.12-30.05l13.47-8.01zm-97.25 485.71c-1.33 1.3-2.76 1.34-4.26.36-3.77-2.45-17.91-17.41-21.51-21.56-6.72-7.76-11.51-17.46-18-25-3.78-4.38-8.93-7.36-11.83-11.84.81-5.18 35.08-32.8 41.41-37.64 5.32-4.08 29.93-22.57 34.92-22.07 1.56.16 9.83 8.15 12.21 9.86 11.65 8.37 26.09 14.33 36.8 23.2 2.88 2.38 15.38 14.07 14.44 17.32s-16.86 5.21-20.69 6.37c-18.19 5.5-42.4 26.32-53.03 41.97-2.64 3.88-8.73 17.36-10.44 19.04zm18-111.59a298 298 0 0 0-66.63 52.56c-.71 2.66 5.69 6.35 7.86 8.83 6.64 7.61 11.59 17.54 18.52 25.48 2.33 2.67 16.03 16.51 18.2 16.86 4.7-2.87 7.14-9.51 10.5-14.19 12.61-17.58 35.06-38.24 55.86-45.14 2.84-.94 12.41-1.74 12.96-4.08-8.74-13.85-24.57-18.99-37.53-27.44-3.94-2.57-13.6-11.48-16.53-12.52-1.09-.39-2.02-.82-3.2-.37zM63.23 243.71c-2.6-8.52-4.12-19 1.34-26.71 8.87-12.52 25.02 6.54 33.93 6.49 1.91-.01 11.53-5.43 14.98-6.58 13.17-4.36 33.64-3.27 46.74 1.28 9.97 3.46 3.32 29-3.96 30.54-3.34.71-16.39-1.33-20.27-2.3-6.38-1.59-16.95-7.92-22.65-8.22-2.83-.15-10.86 4.84-14.56 5.99-11.62 3.62-24.12 3.88-35.55-.51zm2.78-4.78c6.12 2.22 12.85 3.61 19.4 2.89 2.94-.32 13.95-3.23 16.6-4.39 1.13-.5 3.41-1.32 3-2.99s-28.92-16.06-31.75-16.32c-3.19-.29-7.25 3.98-7.25 6.31zm40-11.01c6.65 2.2 12.92 5.6 19.47 8.04 15.99 5.95 35.38 15.83 33.08-11.09-13.12-3.34-24.87-7.56-38.59-4.47-2.1.47-16.15 4.52-13.96 7.52m-40.3-99.8 2.31 1.27 28.59 37.44c3.23 4.42 16.13 8.91 17.93 13.1s-12.9 3.12-15.07 3.04c-18.26-.7-32.19-5.45-51.09-1.18-3.83.87-12.47 4.89-15.06 4.94-3.15.06-10.87-16.34-13.49-20.12S-.33 144.15 0 142.46c.53-2.67 17.99-1.28 21.49-1.53 15.47-1.14 30.01-7.14 44.21-12.8zm-1.94 6.97c-5.58.58-17.5 6.14-24.34 7.77-3.49.83-27.44 4.08-27.4 5.58 5.77 7.6 13.73 15.39 18.16 23.82.96 1.82 1.65 6.47 2.77 7.25 2.21 1.53 7.04-1.55 9.83-2.28 21.21-5.56 31.02-1.5 51.23-.76 6.54.24-2.34-5.88-4.42-8.61-4.28-5.6-7.55-12.42-11.77-18.23-4.25-5.86-9.38-9.85-14.06-14.54m409.88 6.49c-1.74 2.15-4.51 3.83-6.47 7.03-6.54 10.74-5.91 29.33-8.67 42.33-2.44 11.47-12.56 45.83-21.99 52.08-.89.59-1.39 1.15-2.55.54l-29.92-32.08c8.18-18.25 8.31-38.47 12.27-57.73 2.37-11.54 5.89-27 18.16-31.32l41.46 9.06 1.93 3.72c-.21 1.35-3.14 5.04-4.22 6.37m-2.64-6.63-36.29-7.82c-1.55.31-2.6 1.27-3.7 2.32-11.85 11.29-12.94 49.15-17.3 65.7-1.33 5.03-4.06 9.2-4.74 14.24l25.6 26.52c2.15.48 6.37-8.66 7.29-10.61 6.57-13.95 11.2-32.91 13.87-48.13 2.12-12.12-.11-21.39 7.86-32.14 2.47-3.33 7.04-5.56 7.41-10.07zM133.48 306.1c5.06 1.39 10.84 3.35 16.05 3.82 12.45 1.11 33.7-2.33 44.51.49 5.55 1.45 27.9 26.03 35.49 31.51 2.51 1.81 23.69 11.78 12.03 13.07-31.48 3.5-61.48-7.79-92.13-12.97-7.23-2.81-18.62-26.17-17.44-33.57.17-1.07.42-1.88 1.49-2.34zm15.84 30.51c1.38 1.16 3.55 1.74 5.3 2.21 19.97 1.12 43.33 10.02 62.54 11.45 1.83.14 9.45.01 9.84-1.86l-32.49-31.49a7.3 7.3 0 0 0-4.06-1.94c-10.13-1.6-25.07.52-35.98-.02-5.06-.25-10.65-2.02-15.81-1.94-1.77.88-1.65 1.23-1.22 2.94.82 3.23 9.42 18.57 11.89 20.64zm85.93-136.43c2.7-3.33 11.69 3.22 14.79 4.23 18.54 6.04 42.45-4.31 61.02-7.05 3.86 1.05 8.95 16.81 12.54 21.49 2.91 3.79 20.96 15.01 10.87 17.05-7.13 1.44-19.58 2.14-27 2.08-20.23-.16-48.29-2.86-67.28-9.72-7.7-2.78-8.87-23.21-4.94-28.08m89.43 27.05c-2.89-3.34-6.62-5.9-9.11-10.37-1.58-2.84-3.82-12.07-6.24-12.83-17.77 3.55-36.36 8.93-54.72 6.79-6.15-.72-10.77-4.54-16.6-4.9l1.91 16.59c.85.94 1.98 1.38 3.08 1.92 14.79 7.28 62.81 9.46 79.55 7.55 3.56-.41 4.55-1.95 2.13-4.75m-56.67 90.7c-.42-6.4 8.38-5.78 12.95-7.54 15.14-5.81 39.18-19.07 53.35-27.65 10.37-6.28 20.16-16.4 30-21.99 1.61-.91 3.72-2.71 5.17-.81 2.55 3.34 1.39 15.76 1.47 20.53.06 3.8 2.98 6.76-1.58 9.34-3.62 2.05-7.81.7-11.77 1.23-11.05 1.48-14.17 8.63-22.27 13.73-9.77 6.14-23.69 8.28-34.97 10.03-4.07.63-31.21 4.27-32.37 3.12zM366 267.94c-1.71-.28-2.92.36-4.35 1.15-8.06 4.4-17.15 12.78-25.98 18.02-10.78 6.4-25.42 11.92-35.36 18.64-1.28.87-2.73 1.13-2.3 3.19 9.43-.86 20.36-2.48 28.99-6.5 8.47-3.95 15.06-13.62 24.19-15.81 5.02-1.21 9.67-.41 14.68-.81zm-1.12-174.13c-3.5 1.68-7.26.77-10.93 1.56-11.35 2.45-19.76 13.68-28.47 20.53-6.94 5.47-30.51 20.42-38.73 18.87-3.94-.74-11.41-14.68-10.77-18.32.69-3.94 11.77-5.04 15.58-6.48 19.07-7.25 40.26-29.65 57.97-31.03 2.21-.17 7.85-.49 9.48.49 1.98 1.19 7.35 12.02 5.88 14.37zM358 88.92c-.62-6.65-11.9-4.35-16.28-2.78-10.72 3.86-25.39 18.82-37.39 24.61-7.05 3.4-14.83 4.2-21.07 6.96-1.01.45-1.66-.24-1.14 1.58l6.34 10.41a100 100 0 0 0 31.44-16.37c12.33-9.49 20.74-23.13 38.09-24.41zM19.01 327.43c-1.17-8.22-9.42-20.22-10.8-29.19-.11-1.14.89-2.4 1.82-2.84 3.85-1.84 35.78 12.84 40.46 16.56 5.22 4.15 19.18 24.31 15.09 30.04-1.33 1.87-26.15-1.57-31.11-1.11-2.97.27-15.46 5.97-15.46 2.54 0-4.78.63-11.58 0-16m38.99 8.5c-3.55-20.4-24.17-26.46-40.99-32.99.93 11.32 7.87 21.43 6.99 33 11.37-.93 22.62-1.66 34-.01"/><path d="m339.02 365.92 7.5-1.98c14.09 1.3 25.71-1.74 38.74-6.26 3.21-1.12 20.03-7.48 20.65-9.42 1.41-4.39-7.52-12.13-6.89-17.32 2.95-3 14.12 15 12.84 19.29-1.13 3.77-24.14 12.03-28.83 13.22-13.92 3.53-29.9 4.73-44 2.48zM486 424.94c2.62 6.22-14.54 13.06-16.99 10.99-.45-4.14 15.95-12.08 16.99-10.99m390.01-309.01 12.96.05 68.54 221.96 68.59-221.91 12.91-.1v230h-7v-222l-70.1 221.9-7.45.17-71.45-222.07v222h-7zm221 0 12.96.05 68.54 221.96 68.59-221.91 12.91-.1v230h-7v-222l-70.1 221.9-7.45.17-71.45-222.07v222h-7zm-266 0v7h-76v100h71v7h-71v109h78v7h-85v-230zm570 0v7h-76v100h71v7h-71v109h78v7h-85v-230zm58.35 14.36c-14.5 14.79-17.48 42.24-10.22 61.02 11.27 29.18 44.55 34.27 65.88 53.12 19.96 17.64 25.93 41.8 19.49 67.52-12.07 48.24-75.11 51.23-98.43 10.62l5.91-4.62c4.74 12.55 21.94 23.55 34.96 25.55 45.98 7.08 66.59-48.66 43.86-82.86-17.69-26.61-54.44-29.64-72.22-56.78-16.71-25.5-12.8-68.36 14.5-85.33 20.43-12.7 50.79-9.35 65.89 9.94 4.06 5.19 5.2 5.98-.48 10.46-13.1-24.78-50.05-28.11-69.15-8.63zm-751.35-14.36v7h-74v100h69v7h-69v116h-7v-230zm916.5 291c27.24 2.52 45.51 21.2 47.54 48.46 2.45 32.93-11 63.32-47.05 66.05l49.01 115.48-8.51-.98-47.49-115.01h-37v116h-7v-230c16.28 1.1 34.44-1.48 50.5 0m-43.5 107h47.5c3.07 0 13.08-4.08 16.17-5.83 28.56-16.21 29.07-75-1.98-89.35-2.57-1.19-13.95-4.82-16.18-4.82h-45.5zm-954 123v-230h46.5c21.99 0 44.2 18.17 54.67 36.33 26.99 46.8 26.05 157.63-28.49 185.86-5.89 3.05-19.83 7.81-26.19 7.81zm7-7h42.5c12.4 0 31.82-14.11 39.48-23.52 30.77-37.82 30.67-131.9-.47-169.49-7.71-9.31-26.7-22.99-39.01-22.99h-42.5zm517.95-222.95L1209 636.93l-6.9-.09-16.19-64.8-81.29-.16-17.5 64.48-7.11.58 59.04-229.95zm-45.95 157.95h78l-37.51-154.01zm-119-41v113h-7v-230h50.5c2.01 0 11.19 2.48 13.72 3.28 51.18 16.38 37.98 113.72-12.72 113.72zm0-7h47.5c1.57 0 10.46-3.53 12.44-4.56 28.79-14.98 30.87-71.71 5-90.87-2.93-2.17-14.25-7.57-17.43-7.57h-47.5zm262 7v113h-7v-230h50.5c2.01 0 11.19 2.48 13.72 3.28 51.18 16.38 37.98 113.72-12.72 113.72zm0-7h47.5c1.57 0 10.46-3.53 12.44-4.56 28.79-14.98 30.87-71.71 5-90.87-2.93-2.17-14.25-7.57-17.43-7.57h-47.5zm-373-110v7h-76v100h71v7h-71v109h78v7h-85v-230zm652 0v7h-76v100h71v7h-71v109h78v7h-85v-230zm-141 0h-7v230h7z"/></g><defs><clipPath id="a"><rect width="1674.01" height="751.93" fill="#fff"/></clipPath></defs></svg>